<svg width="156" height="48" viewBox="0 0 156 48" fill="none" xmlns="http://www.w3.org/2000/svg">
<g filter="url(#filter0_d_1_505)">
<ellipse cx="19.5" cy="26.4827" rx="15.5" ry="15.5172" fill="white"/>
<path d="M27.4218 9.57778C27.4218 5.39269 30.8144 2 34.9995 2V26.8276H27.4218V9.57778Z" fill="white"/>
</g>
<g filter="url(#filter1_d_1_505)">
<path d="M28.1111 26.4827C28.1111 31.2438 24.2558 35.1034 19.5 35.1034C14.7442 35.1034 10.8889 31.2438 10.8889 26.4827C10.8889 21.7217 14.7442 17.8621 19.5 17.8621C24.2558 17.8621 28.1111 21.7217 28.1111 26.4827Z" fill="url(#paint0_linear_1_505)" shape-rendering="crispEdges"/>
<path d="M19.1556 38.5517V35.1034L26.7334 30.9655C24.5289 35.6552 20.763 37.977 19.1556 38.5517Z" fill="url(#paint1_linear_1_505)" shape-rendering="crispEdges"/>
</g>
<ellipse cx="15.0226" cy="26.1379" rx="1.37778" ry="1.37931" fill="white"/>
<ellipse cx="19.1555" cy="26.1379" rx="1.37778" ry="1.37931" fill="white"/>
<ellipse cx="23.2896" cy="26.1379" rx="1.37778" ry="1.37931" fill="white"/>
<path d="M58.1424 14V30.5656H54.8007V29.1814C53.9335 30.2233 52.6776 30.7442 51.0329 30.7442C49.8966 30.7442 48.865 30.4912 47.938 29.9851C47.0259 29.4791 46.3083 28.7572 45.785 27.8195C45.2617 26.8819 45 25.7953 45 24.56C45 23.3247 45.2617 22.2381 45.785 21.3005C46.3083 20.3628 47.0259 19.6409 47.938 19.1349C48.865 18.6288 49.8966 18.3758 51.0329 18.3758C52.5729 18.3758 53.7765 18.8595 54.6437 19.827V14H58.1424ZM51.6385 27.8865C52.5206 27.8865 53.2532 27.5888 53.8364 26.9935C54.4195 26.3833 54.711 25.5721 54.711 24.56C54.711 23.5479 54.4195 22.7442 53.8364 22.1488C53.2532 21.5386 52.5206 21.2335 51.6385 21.2335C50.7414 21.2335 50.0013 21.5386 49.4182 22.1488C48.8351 22.7442 48.5435 23.5479 48.5435 24.56C48.5435 25.5721 48.8351 26.3833 49.4182 26.9935C50.0013 27.5888 50.7414 27.8865 51.6385 27.8865Z" fill="white"/>
<path d="M67.1219 30.7442C65.851 30.7442 64.7072 30.4837 63.6905 29.9628C62.6888 29.427 61.9038 28.6902 61.3357 27.7526C60.7675 26.8149 60.4834 25.7507 60.4834 24.56C60.4834 23.3693 60.7675 22.3051 61.3357 21.3674C61.9038 20.4298 62.6888 19.7005 63.6905 19.1795C64.7072 18.6437 65.851 18.3758 67.1219 18.3758C68.3928 18.3758 69.5291 18.6437 70.5308 19.1795C71.5326 19.7005 72.3175 20.4298 72.8857 21.3674C73.4539 22.3051 73.7379 23.3693 73.7379 24.56C73.7379 25.7507 73.4539 26.8149 72.8857 27.7526C72.3175 28.6902 71.5326 29.427 70.5308 29.9628C69.5291 30.4837 68.3928 30.7442 67.1219 30.7442ZM67.1219 27.8865C68.019 27.8865 68.7516 27.5888 69.3198 26.9935C69.9029 26.3833 70.1944 25.5721 70.1944 24.56C70.1944 23.5479 69.9029 22.7442 69.3198 22.1488C68.7516 21.5386 68.019 21.2335 67.1219 21.2335C66.2248 21.2335 65.4847 21.5386 64.9016 22.1488C64.3185 22.7442 64.0269 23.5479 64.0269 24.56C64.0269 25.5721 64.3185 26.3833 64.9016 26.9935C65.4847 27.5888 66.2248 27.8865 67.1219 27.8865Z" fill="white"/>
<path d="M83.4102 18.3758C84.9054 18.3758 86.109 18.8223 87.021 19.7153C87.948 20.6084 88.4115 21.933 88.4115 23.6893V30.5656H84.9129V24.2251C84.9129 23.2726 84.7035 22.5656 84.2849 22.1042C83.8663 21.6279 83.2607 21.3898 82.4683 21.3898C81.5861 21.3898 80.8834 21.6651 80.3601 22.2158C79.8368 22.7516 79.5752 23.5553 79.5752 24.627V30.5656H76.0765V18.5544H79.4182V19.9609C79.8817 19.4549 80.4573 19.0679 81.1451 18.8C81.8328 18.5172 82.5879 18.3758 83.4102 18.3758Z" fill="white"/>
<path d="M103.533 24.6047C103.533 24.6493 103.511 24.9619 103.466 25.5423H94.3383C94.5027 26.2865 94.8915 26.8744 95.5045 27.306C96.1175 27.7377 96.88 27.9535 97.7921 27.9535C98.42 27.9535 98.9733 27.8642 99.4517 27.6856C99.9451 27.4921 100.401 27.1944 100.82 26.7926L102.681 28.8019C101.545 30.0967 99.8853 30.7442 97.7024 30.7442C96.3418 30.7442 95.1382 30.4837 94.0916 29.9628C93.045 29.427 92.2376 28.6902 91.6694 27.7526C91.1013 26.8149 90.8172 25.7507 90.8172 24.56C90.8172 23.3842 91.0938 22.3274 91.647 21.3898C92.2152 20.4372 92.9852 19.7005 93.957 19.1795C94.9438 18.6437 96.0428 18.3758 97.2538 18.3758C98.435 18.3758 99.504 18.6288 100.461 19.1349C101.418 19.6409 102.165 20.3702 102.704 21.3228C103.257 22.2605 103.533 23.3544 103.533 24.6047ZM97.2763 21.0102C96.4838 21.0102 95.8185 21.2335 95.2802 21.68C94.742 22.1265 94.413 22.7367 94.2934 23.5107H100.237C100.117 22.7516 99.7881 22.1488 99.2499 21.7023C98.7116 21.2409 98.0537 21.0102 97.2763 21.0102Z" fill="white"/>
<path d="M121.315 18.3758C122.825 18.3758 124.021 18.8223 124.904 19.7153C125.801 20.5935 126.249 21.9181 126.249 23.6893V30.5656H122.75V24.2251C122.75 23.2726 122.549 22.5656 122.145 22.1042C121.756 21.6279 121.196 21.3898 120.463 21.3898C119.641 21.3898 118.99 21.6577 118.512 22.1935C118.033 22.7144 117.794 23.4958 117.794 24.5377V30.5656H114.295V24.2251C114.295 22.3349 113.533 21.3898 112.008 21.3898C111.2 21.3898 110.558 21.6577 110.079 22.1935C109.601 22.7144 109.361 23.4958 109.361 24.5377V30.5656H105.863V18.5544H109.204V19.9386C109.653 19.4326 110.199 19.0456 110.842 18.7777C111.499 18.5098 112.217 18.3758 112.995 18.3758C113.847 18.3758 114.617 18.547 115.305 18.8893C115.992 19.2167 116.546 19.7005 116.964 20.3405C117.458 19.7153 118.078 19.2316 118.826 18.8893C119.588 18.547 120.418 18.3758 121.315 18.3758Z" fill="white"/>
<path d="M141.336 24.6047C141.336 24.6493 141.313 24.9619 141.268 25.5423H132.141C132.305 26.2865 132.694 26.8744 133.307 27.306C133.92 27.7377 134.682 27.9535 135.594 27.9535C136.222 27.9535 136.776 27.8642 137.254 27.6856C137.747 27.4921 138.203 27.1944 138.622 26.7926L140.483 28.8019C139.347 30.0967 137.688 30.7442 135.505 30.7442C134.144 30.7442 132.94 30.4837 131.894 29.9628C130.847 29.427 130.04 28.6902 129.472 27.7526C128.904 26.8149 128.619 25.7507 128.619 24.56C128.619 23.3842 128.896 22.3274 129.449 21.3898C130.017 20.4372 130.787 19.7005 131.759 19.1795C132.746 18.6437 133.845 18.3758 135.056 18.3758C136.237 18.3758 137.306 18.6288 138.263 19.1349C139.22 19.6409 139.968 20.3702 140.506 21.3228C141.059 22.2605 141.336 23.3544 141.336 24.6047ZM135.078 21.0102C134.286 21.0102 133.621 21.2335 133.082 21.68C132.544 22.1265 132.215 22.7367 132.096 23.5107H138.039C137.919 22.7516 137.59 22.1488 137.052 21.7023C136.514 21.2409 135.856 21.0102 135.078 21.0102Z" fill="white"/>
<path d="M150.999 18.3758C152.494 18.3758 153.697 18.8223 154.61 19.7153C155.536 20.6084 156 21.933 156 23.6893V30.5656H152.501V24.2251C152.501 23.2726 152.292 22.5656 151.873 22.1042C151.455 21.6279 150.849 21.3898 150.057 21.3898C149.175 21.3898 148.472 21.6651 147.949 22.2158C147.425 22.7516 147.164 23.5553 147.164 24.627V30.5656H143.665V18.5544H147.007V19.9609C147.47 19.4549 148.046 19.0679 148.734 18.8C149.421 18.5172 150.176 18.3758 150.999 18.3758Z" fill="white"/>
<defs>
<filter id="filter0_d_1_505" x="0" y="0" width="39" height="48" filterUnits="userSpaceOnUse" color-interpolation-filters="sRGB">
<feFlood flood-opacity="0" result="BackgroundImageFix"/>
<feColorMatrix in="SourceAlpha" type="matrix" values="0 0 0 0 0 0 0 0 0 0 0 0 0 0 0 0 0 0 127 0" result="hardAlpha"/>
<feOffset dy="2"/>
<feGaussianBlur stdDeviation="2"/>
<feComposite in2="hardAlpha" operator="out"/>
<feColorMatrix type="matrix" values="0 0 0 0 0 0 0 0 0 0 0 0 0 0 0 0 0 0 0.15 0"/>
<feBlend mode="normal" in2="BackgroundImageFix" result="effect1_dropShadow_1_505"/>
<feBlend mode="normal" in="SourceGraphic" in2="effect1_dropShadow_1_505" result="shape"/>
</filter>
<filter id="filter1_d_1_505" x="6.88892" y="17.8621" width="25.2222" height="28.6897" filterUnits="userSpaceOnUse" color-interpolation-filters="sRGB">
<feFlood flood-opacity="0" result="BackgroundImageFix"/>
<feColorMatrix in="SourceAlpha" type="matrix" values="0 0 0 0 0 0 0 0 0 0 0 0 0 0 0 0 0 0 127 0" result="hardAlpha"/>
<feOffset dy="4"/>
<feGaussianBlur stdDeviation="2"/>
<feComposite in2="hardAlpha" operator="out"/>
<feColorMatrix type="matrix" values="0 0 0 0 0 0 0 0 0 0 0 0 0 0 0 0 0 0 0.2 0"/>
<feBlend mode="normal" in2="BackgroundImageFix" result="effect1_dropShadow_1_505"/>
<feBlend mode="normal" in="SourceGraphic" in2="effect1_dropShadow_1_505" result="shape"/>
</filter>
<linearGradient id="paint0_linear_1_505" x1="15.6148" y1="28.5116" x2="30.9751" y2="-6.35955" gradientUnits="userSpaceOnUse">
<stop stop-color="#1860FF"/>
<stop offset="1" stop-color="#407BFF" stop-opacity="0"/>
<stop offset="1" stop-color="#004FFF"/>
</linearGradient>
<linearGradient id="paint1_linear_1_505" x1="15.6148" y1="28.5116" x2="30.9751" y2="-6.35955" gradientUnits="userSpaceOnUse">
<stop stop-color="#1860FF"/>
<stop offset="1" stop-color="#407BFF" stop-opacity="0"/>
<stop offset="1" stop-color="#004FFF"/>
</linearGradient>
</defs>
</svg>
