<svg width="28" height="41" viewBox="0 0 28 41" fill="none" xmlns="http://www.w3.org/2000/svg">
<circle cx="13.9656" cy="22.0345" r="13.9655" fill="#407BFF"/>
<path d="M21.1035 6.82758C21.1035 3.05681 24.1603 0 27.9311 0V22.3448H21.1035V6.82758Z" fill="#407BFF"/>
<g filter="url(#filter0_d_1_559)">
<path d="M21.7241 22.0345C21.7241 26.3194 18.2505 29.7931 13.9655 29.7931C9.68056 29.7931 6.20691 26.3194 6.20691 22.0345C6.20691 17.7495 9.68056 14.2758 13.9655 14.2758C18.2505 14.2758 21.7241 17.7495 21.7241 22.0345Z" fill="white"/>
<path d="M13.6552 32.8965V29.7931L20.4828 26.069C18.4966 30.2896 15.1035 32.3793 13.6552 32.8965Z" fill="white"/>
</g>
<circle cx="9.93108" cy="21.7241" r="1.24138" fill="#407BFF"/>
<circle cx="13.6553" cy="21.7241" r="1.24138" fill="#407BFF"/>
<circle cx="17.3794" cy="21.7241" r="1.24138" fill="#407BFF"/>
<defs>
<filter id="filter0_d_1_559" x="2.20691" y="14.2758" width="23.5172" height="26.6207" filterUnits="userSpaceOnUse" color-interpolation-filters="sRGB">
<feFlood flood-opacity="0" result="BackgroundImageFix"/>
<feColorMatrix in="SourceAlpha" type="matrix" values="0 0 0 0 0 0 0 0 0 0 0 0 0 0 0 0 0 0 127 0" result="hardAlpha"/>
<feOffset dy="4"/>
<feGaussianBlur stdDeviation="2"/>
<feComposite in2="hardAlpha" operator="out"/>
<feColorMatrix type="matrix" values="0 0 0 0 0 0 0 0 0 0 0 0 0 0 0 0 0 0 0.25 0"/>
<feBlend mode="normal" in2="BackgroundImageFix" result="effect1_dropShadow_1_559"/>
<feBlend mode="normal" in="SourceGraphic" in2="effect1_dropShadow_1_559" result="shape"/>
</filter>
</defs>
</svg>
